<?xml version="1.0" ?><svg viewBox="0 0 64 64" xmlns="http://www.w3.org/2000/svg"><defs><style>.cls-1{fill:#eee;}.cls-2{fill:#4c241d;}.cls-3{fill:none;}.cls-3,.cls-4,.cls-5{stroke:#4c241d;stroke-linecap:round;stroke-linejoin:round;stroke-width:2px;}.cls-4{fill:#a9ba5a;}.cls-5{fill:#ffce56;}</style></defs><g id="nft-network"><circle class="cls-1" cx="32.5" cy="31.5" r="21.5"/><circle class="cls-2" cx="9.5" cy="32.5" r="1.1324"/><circle class="cls-2" cx="8.5" cy="7.5" r="1.1324"/><line class="cls-3" x1="56.5858" x2="59.4142" y1="32.5858" y2="35.4142"/><line class="cls-3" x1="59.4142" x2="56.5858" y1="32.5858" y2="35.4142"/><polyline class="cls-3" points="15 27 11 27 11 16"/><polyline class="cls-3" points="50 27 54 27 54 16"/><circle class="cls-4" cx="11" cy="14" r="2"/><circle class="cls-4" cx="21" cy="10" r="2"/><circle class="cls-4" cx="54" cy="14" r="2"/><line class="cls-3" x1="21" x2="21" y1="20" y2="12"/><circle class="cls-4" cx="44" cy="10" r="2"/><circle class="cls-4" cx="32" cy="4" r="2"/><line class="cls-3" x1="44" x2="44" y1="20" y2="13"/><line class="cls-3" x1="32" x2="32" y1="16" y2="7"/><polyline class="cls-3" points="15 38 11 38 11 49"/><polyline class="cls-3" points="50 38 54 38 54 49"/><circle class="cls-4" cx="11" cy="51" r="2"/><circle class="cls-4" cx="21" cy="55" r="2"/><circle class="cls-4" cx="54" cy="51" r="2"/><line class="cls-3" x1="21" x2="21" y1="46" y2="53"/><circle class="cls-4" cx="44" cy="55" r="2"/><circle class="cls-4" cx="32" cy="61" r="2"/><line class="cls-3" x1="44" x2="44" y1="45" y2="52"/><line class="cls-3" x1="32" x2="32" y1="50" y2="58"/><circle class="cls-5" cx="32" cy="33" r="13"/><polyline class="cls-3" points="34 30 31 30 31 36"/><line class="cls-3" x1="34" x2="31" y1="33" y2="33"/><polyline class="cls-3" points="28 34 24 30 24 36"/><line class="cls-3" x1="28" x2="28" y1="30" y2="36"/><line class="cls-3" x1="37" x2="41" y1="30" y2="30"/><line class="cls-3" x1="39" x2="39" y1="36" y2="30"/></g></svg>